# Blender v3.2.0 OBJ File: ''
# www.blender.org
mtllib PositionGizmo.mtl
o WorldDirection.002_Cube.001
v -0.150000 4.050000 -0.150000
v -0.150000 4.050000 0.150000
v -0.300000 4.055383 0.300000
v -0.300000 4.055383 -0.300000
v 0.150000 4.050000 0.150000
v 0.300000 4.055383 0.300000
v -0.150000 0.007705 0.150000
v 0.150000 0.007705 0.150000
v 0.000000 4.805384 0.000000
v 0.000000 4.805384 0.000000
v 0.000000 4.805384 0.000000
v 0.000000 4.805384 0.000000
v 0.300000 4.055383 -0.300000
v 0.150000 4.050000 -0.150000
v 0.150000 0.007706 -0.150000
v -0.150000 0.007706 -0.150000
vt 0.125000 0.500000
vt 0.125000 0.750000
vt 0.125000 0.750000
vt 0.125000 0.500000
vt 0.375000 1.000000
vt 0.625000 1.000000
vt 0.625000 1.000000
vt 0.375000 1.000000
vt 0.375000 0.875428
vt 0.625000 0.875428
vt 0.500000 0.125000
vt 0.500000 0.125000
vt 0.375000 0.250000
vt 0.375000 0.000000
vt 0.500000 0.125000
vt 0.625000 0.000000
vt 0.500000 0.125000
vt 0.625000 0.250000
vt 0.875000 0.750000
vt 0.875000 0.500000
vt 0.875000 0.500000
vt 0.875000 0.750000
vt 0.625000 0.250000
vt 0.375000 0.250000
vt 0.750428 0.500000
vt 0.750428 0.750000
vt 0.625000 0.374572
vt 0.375000 0.374572
vt 0.249572 0.500000
vt 0.249572 0.750000
vn -0.0359 -0.9994 0.0000
vn 0.0000 -0.9994 0.0359
vn 0.0000 -0.0000 1.0000
vn -0.9285 0.3714 0.0000
vn 0.0000 0.3714 0.9285
vn 0.9285 0.3714 0.0000
vn 0.0000 0.3714 -0.9285
vn 0.0359 -0.9994 0.0000
vn 0.0000 -0.9994 -0.0359
vn 1.0000 0.0000 0.0000
vn 0.0000 0.0000 -1.0000
vn -1.0000 0.0000 0.0000
usemtl Material.001
s 1
f 1/1/1 2/2/1 3/3/1 4/4/1
f 2/5/2 5/6/2 6/7/2 3/8/2
f 7/9/3 8/10/3 5/6/3 2/5/3
f 9/11/4 10/12/4 4/13/4 3/14/4
f 11/15/5 9/11/5 3/14/5 6/16/5
f 9/11/3 11/15/3 12/17/3 10/12/3
f 12/17/6 11/15/6 6/16/6 13/18/6
f 10/12/7 12/17/7 13/18/7 4/13/7
f 5/19/8 14/20/8 13/21/8 6/22/8
f 14/23/9 1/24/9 4/13/9 13/18/9
f 15/25/10 14/20/10 5/19/10 8/26/10
f 1/24/11 14/23/11 15/27/11 16/28/11
f 1/1/12 16/29/12 7/30/12 2/2/12
